<svg width="148" height="35" viewBox="0 0 148 35" fill="none" xmlns="http://www.w3.org/2000/svg">
<path d="M12.44 26L7.768 17.52H6.456V26H0.984V3.536H10.168C11.9387 3.536 13.4427 3.84533 14.68 4.464C15.9387 5.08267 16.8773 5.936 17.496 7.024C18.1147 8.09067 18.424 9.28533 18.424 10.608C18.424 12.1013 17.9973 13.4347 17.144 14.608C16.312 15.7813 15.0747 16.6133 13.432 17.104L18.616 26H12.44ZM6.456 13.648H9.848C10.8507 13.648 11.5973 13.4027 12.088 12.912C12.6 12.4213 12.856 11.728 12.856 10.832C12.856 9.97867 12.6 9.30667 12.088 8.816C11.5973 8.32533 10.8507 8.08 9.848 8.08H6.456V13.648ZM24.611 6.288C23.651 6.288 22.8617 6.01067 22.243 5.456C21.6457 4.88 21.347 4.176 21.347 3.344C21.347 2.49067 21.6457 1.78667 22.243 1.232C22.8617 0.655998 23.651 0.367998 24.611 0.367998C25.5497 0.367998 26.3177 0.655998 26.915 1.232C27.5337 1.78667 27.843 2.49067 27.843 3.344C27.843 4.176 27.5337 4.88 26.915 5.456C26.3177 6.01067 25.5497 6.288 24.611 6.288ZM27.331 8.144V26H21.859V8.144H27.331ZM38.0805 7.888C39.3392 7.888 40.4378 8.144 41.3765 8.656C42.3365 9.168 43.0725 9.84 43.5845 10.672V8.144H49.0565V25.968C49.0565 27.6107 48.7258 29.0933 48.0645 30.416C47.4245 31.76 46.4325 32.8267 45.0885 33.616C43.7658 34.4053 42.1125 34.8 40.1285 34.8C37.4832 34.8 35.3392 34.1707 33.6965 32.912C32.0538 31.6747 31.1152 29.9893 30.8805 27.856H36.2885C36.4592 28.5387 36.8645 29.072 37.5045 29.456C38.1445 29.8613 38.9338 30.064 39.8725 30.064C41.0032 30.064 41.8992 29.7333 42.5605 29.072C43.2432 28.432 43.5845 27.3973 43.5845 25.968V23.44C43.0512 24.272 42.3152 24.9547 41.3765 25.488C40.4378 26 39.3392 26.256 38.0805 26.256C36.6085 26.256 35.2752 25.8827 34.0805 25.136C32.8858 24.368 31.9365 23.2907 31.2325 21.904C30.5498 20.496 30.2085 18.8747 30.2085 17.04C30.2085 15.2053 30.5498 13.5947 31.2325 12.208C31.9365 10.8213 32.8858 9.75467 34.0805 9.008C35.2752 8.26133 36.6085 7.888 38.0805 7.888ZM43.5845 17.072C43.5845 15.7067 43.2005 14.6293 42.4325 13.84C41.6858 13.0507 40.7685 12.656 39.6805 12.656C38.5925 12.656 37.6645 13.0507 36.8965 13.84C36.1498 14.608 35.7765 15.6747 35.7765 17.04C35.7765 18.4053 36.1498 19.4933 36.8965 20.304C37.6645 21.0933 38.5925 21.488 39.6805 21.488C40.7685 21.488 41.6858 21.0933 42.4325 20.304C43.2005 19.5147 43.5845 18.4373 43.5845 17.072ZM70.6473 8.144V26H65.1753V23.568C64.6206 24.3573 63.8633 24.9973 62.9033 25.488C61.9646 25.9573 60.9193 26.192 59.7673 26.192C58.4019 26.192 57.1966 25.8933 56.1513 25.296C55.1059 24.6773 54.2953 23.792 53.7193 22.64C53.1433 21.488 52.8553 20.1333 52.8553 18.576V8.144H58.2953V17.84C58.2953 19.0347 58.6046 19.9627 59.2233 20.624C59.8419 21.2853 60.6739 21.616 61.7193 21.616C62.7859 21.616 63.6286 21.2853 64.2473 20.624C64.8659 19.9627 65.1753 19.0347 65.1753 17.84V8.144H70.6473ZM80.0498 11.12C80.6898 10.1387 81.4898 9.37067 82.4498 8.816C83.4098 8.24 84.4764 7.952 85.6498 7.952V13.744H84.1458C82.7804 13.744 81.7564 14.0427 81.0738 14.64C80.3911 15.216 80.0498 16.24 80.0498 17.712V26H74.5778V8.144H80.0498V11.12ZM105.897 8.144V26H100.425V23.568C99.8706 24.3573 99.1133 24.9973 98.1533 25.488C97.2146 25.9573 96.1693 26.192 95.0173 26.192C93.6519 26.192 92.4466 25.8933 91.4013 25.296C90.3559 24.6773 89.5453 23.792 88.9693 22.64C88.3933 21.488 88.1053 20.1333 88.1053 18.576V8.144H93.5453V17.84C93.5453 19.0347 93.8546 19.9627 94.4733 20.624C95.0919 21.2853 95.9239 21.616 96.9693 21.616C98.0359 21.616 98.8786 21.2853 99.4973 20.624C100.116 19.9627 100.425 19.0347 100.425 17.84V8.144H105.897ZM120.74 26L115.3 18.512V26H109.828V2.32H115.3V15.408L120.708 8.144H127.46L120.036 17.104L127.524 26H120.74ZM147.241 8.144V26H141.769V23.568C141.214 24.3573 140.457 24.9973 139.497 25.488C138.558 25.9573 137.513 26.192 136.361 26.192C134.996 26.192 133.79 25.8933 132.745 25.296C131.7 24.6773 130.889 23.792 130.313 22.64C129.737 21.488 129.449 20.1333 129.449 18.576V8.144H134.889V17.84C134.889 19.0347 135.198 19.9627 135.817 20.624C136.436 21.2853 137.268 21.616 138.313 21.616C139.38 21.616 140.222 21.2853 140.841 20.624C141.46 19.9627 141.769 19.0347 141.769 17.84V8.144H147.241Z" fill="#161616"/>
</svg>
